<?xml version="1.0" standalone="no"?>
<!DOCTYPE svg PUBLIC "-//W3C//DTD SVG 20010904//EN"
 "http://www.w3.org/TR/2001/REC-SVG-20010904/DTD/svg10.dtd">
<svg version="1.0" xmlns="http://www.w3.org/2000/svg"
 width="700.000000pt" height="700.000000pt" viewBox="0 0 700.000000 700.000000"
 preserveAspectRatio="xMidYMid meet">
<metadata>
Created by potrace 1.11, written by Peter Selinger 2001-2013
</metadata>
<g transform="translate(0.000000,700.000000) scale(0.100000,-0.100000)"
fill="#000000" stroke="none">
<path d="M3879 6996 c-2 -2 -44 -7 -94 -11 -49 -3 -106 -8 -125 -10 -19 -2
-57 -6 -85 -9 -27 -3 -66 -7 -85 -10 -19 -3 -71 -10 -115 -16 -197 -28 -502
-83 -685 -125 -404 -92 -719 -231 -945 -419 -264 -219 -492 -575 -614 -959
-27 -82 -63 -222 -77 -291 -11 -58 -109 -321 -162 -437 -40 -88 -51 -129 -47
-189 3 -64 29 -103 139 -210 100 -98 137 -160 131 -223 -3 -27 -33 -99 -82
-197 -129 -256 -287 -509 -462 -738 -114 -150 -132 -178 -152 -236 -13 -38
-15 -56 -7 -80 19 -57 97 -124 218 -187 113 -59 169 -99 197 -140 23 -35 27
-51 26 -112 0 -93 -1 -94 -72 -233 -63 -121 -67 -145 -32 -170 9 -7 30 -24 46
-38 17 -14 54 -43 82 -64 29 -20 53 -40 53 -44 0 -4 -14 -29 -30 -55 -40 -62
-54 -114 -40 -145 6 -13 35 -36 63 -52 92 -51 154 -103 175 -148 18 -37 21
-57 17 -143 -2 -55 -10 -120 -18 -145 -27 -92 -2 -272 55 -383 52 -102 182
-177 298 -171 93 5 534 128 909 254 l206 69 55 -32 c121 -69 269 -251 373
-461 52 -105 125 -295 148 -383 l13 -53 1509 4 c830 3 1511 7 1514 10 6 6 -84
176 -141 266 -161 252 -291 725 -342 1240 -6 70 -7 306 0 355 2 17 7 59 11 95
3 36 8 72 10 80 2 8 7 31 10 50 10 59 43 192 63 255 85 260 183 434 433 770
300 404 417 657 463 1005 13 100 14 509 1 600 -2 19 -7 60 -10 90 -3 30 -8 62
-10 70 -2 8 -6 35 -9 60 -16 119 -63 330 -101 445 -107 324 -324 638 -595 860
-61 50 -263 197 -345 252 -398 265 -787 416 -1220 474 -83 11 -507 23 -516 15z"/>
</g>
</svg>
